# xmcd
#
# Track frame offsets:
#	150
#	16322
#	30015
#	44317
#	55202
#	73227
#	86335
#	103547
#	117507
#	132765
#
# Disc length: 1957 seconds
#
# Revision: 1
# Processed by: cddbd v1.5.2PL0 Copyright (c) Steve Scherf et al.
# Submitted via: EasyCDDAExtractor 6.2.0.3
#
DISCID=7907a30a
DTITLE=Gilles Des Coteaux - Si tu ne crois pas aux anges
DYEAR=1997
DGENRE=Country
TTITLE0=Au retour
TTITLE1=Entre nous
TTITLE2=J'suis prisonnier des mots
TTITLE3=Ma passion
TTITLE4=Pour mieux t'aimer
TTITLE5=Indifference ou independance
TTITLE6=Si tu ne crois pas aux anges
TTITLE7=La poursuite
TTITLE8=Sur mon ile
TTITLE9=Dans tes yeux
EXTD=Artiste quebecois - Disque no PGDCD-003\n
EXTT0=
EXTT1=
EXTT2=
EXTT3=
EXTT4=
EXTT5=
EXTT6=
EXTT7=
EXTT8=
EXTT9=
PLAYORDER=
